<svg xmlns="http://www.w3.org/2000/svg" xmlns:xlink="http://www.w3.org/1999/xlink" preserveAspectRatio="xMidYMid" width="217" height="160" viewBox="0 0 217 160">
  <defs>
    <style>

      .cls-3 {
        fill: #fbb713;
      }

      .cls-4 {
        fill: #000000;
        opacity: 0.25;
      }

      .cls-5 {
        fill: #142a3b;
      }

      .cls-6 {
        fill: #ff3a2f;
      }
    </style>
  </defs>
  <g id="group-8svg">
    <path d="M170.358,56.423 C186.529,63.112 209.715,44.826 209.715,44.826 C225.854,28.687 209.715,24.303 209.715,24.303 C194.592,29.538 182.838,29.712 174.679,28.502 C170.756,12.158 156.084,-0.004 138.537,-0.004 C117.987,-0.004 101.328,16.655 101.328,37.205 C101.328,52.151 110.160,65.004 122.873,70.921 C120.254,77.274 114.006,81.751 106.708,81.751 C105.489,81.751 0.015,54.688 0.015,54.688 C0.015,54.688 0.911,136.280 53.361,149.729 C53.361,149.729 96.846,170.351 170.365,149.729 C170.365,149.729 212.505,109.382 170.365,80.690 C170.365,80.690 162.555,71.690 161.970,66.093 C165.298,63.389 168.125,60.106 170.358,56.423 Z" id="path-1" class="cls-3" fill-rule="evenodd"/>
    <path d="M170.983,81.144 C187.811,107.525 157.353,136.716 157.353,136.716 C83.833,157.338 40.348,136.716 40.348,136.716 C33.368,134.926 27.328,131.903 22.054,128.053 C29.609,138.121 39.733,146.235 53.361,149.729 C53.361,149.729 96.846,170.351 170.365,149.729 C170.365,149.729 212.033,109.806 170.983,81.144 Z" id="path-2" class="cls-4" fill-rule="evenodd"/>
    <path d="M148.848,29.135 C148.848,32.354 146.238,34.964 143.019,34.964 C139.802,34.964 137.193,32.354 137.193,29.135 C137.193,25.917 139.802,23.307 143.019,23.307 C146.238,23.307 148.848,25.917 148.848,29.135 Z" id="path-3" class="cls-5" fill-rule="evenodd"/>
    <path d="M97.867,128.239 C97.522,128.239 97.175,128.227 96.828,128.202 C92.621,127.901 88.735,125.804 85.885,122.298 C84.291,120.337 82.191,119.180 79.973,119.042 C77.821,118.911 75.724,119.734 74.018,121.369 C74.018,121.369 71.789,123.501 71.789,123.501 C68.557,126.594 64.442,128.121 60.214,127.808 C55.876,127.485 51.910,125.272 49.049,121.576 C49.049,121.576 41.852,112.280 41.852,112.280 C40.629,110.703 40.918,108.432 42.496,107.210 C44.073,105.988 46.344,106.275 47.567,107.855 C47.567,107.855 54.765,117.150 54.765,117.150 C56.356,119.206 58.483,120.430 60.751,120.599 C62.929,120.762 65.060,119.935 66.790,118.277 C66.790,118.277 69.020,116.145 69.020,116.145 C72.204,113.099 76.235,111.568 80.422,111.826 C84.680,112.093 88.612,114.192 91.494,117.738 C93.072,119.679 95.150,120.833 97.345,120.991 C99.437,121.142 101.533,120.359 103.234,118.787 C103.234,118.787 106.925,115.385 106.925,115.385 C110.015,112.533 113.946,111.074 117.909,111.266 C121.966,111.465 125.784,113.355 128.661,116.586 C128.661,116.586 129.706,117.759 129.706,117.759 C131.360,119.615 133.485,120.651 135.691,120.674 C137.742,120.702 140.007,119.719 141.681,117.917 C141.681,117.917 151.262,107.608 151.262,107.608 C152.622,106.144 154.912,106.063 156.369,107.420 C157.832,108.778 157.916,111.066 156.556,112.528 C156.556,112.528 146.976,122.838 146.976,122.838 C143.902,126.148 139.832,127.967 135.615,127.903 C131.348,127.859 127.330,125.963 124.307,122.566 C124.307,122.566 123.263,121.394 123.263,121.394 C121.686,119.623 119.658,118.590 117.555,118.487 C115.449,118.378 113.504,119.151 111.826,120.699 C111.826,120.699 108.135,124.102 108.135,124.102 C105.221,126.791 101.608,128.239 97.867,128.239 Z" id="path-4" class="cls-6" fill-rule="evenodd"/>
  </g>
</svg>
