<svg xmlns="http://www.w3.org/2000/svg" version="1.1" xmlns:xlink="http://www.w3.org/1999/xlink" xmlns:svgjs="http://svgjs.com/svgjs" width="579.000000pt" height="579.000000pt"><svg version="1.0" xmlns="http://www.w3.org/2000/svg" width="579.000000pt" height="579.000000pt" viewBox="0 0 579.000000 579.000000" preserveAspectRatio="xMidYMid meet">
<metadata>
Created by potrace 1.14, written by Peter Selinger 2001-2017
</metadata>
<g transform="translate(0.000000,579.000000) scale(0.100000,-0.100000)" fill="#000000" stroke="none">
<path d="M1238 4705 c-18 -31 -46 -78 -61 -103 -15 -26 -32 -56 -37 -67 -6
-11 -19 -33 -29 -50 -40 -65 -91 -157 -91 -166 0 -5 -4 -9 -10 -9 -5 0 -10 -6
-10 -14 0 -7 -7 -19 -15 -26 -9 -7 -13 -15 -10 -18 3 -3 -1 -12 -7 -20 -7 -8
-17 -22 -23 -33 -5 -10 -46 -80 -90 -156 -44 -76 -79 -141 -77 -145 1 -5 -2
-8 -7 -8 -5 0 -16 -16 -25 -35 l-17 -36 64 -112 c36 -62 89 -152 118 -202 29
-49 62 -107 73 -127 12 -20 45 -77 74 -126 28 -49 52 -94 52 -99 0 -6 9 -18
20 -28 11 -10 20 -22 20 -27 0 -6 27 -56 61 -112 l60 -102 975 1 975 0 25 40
c14 22 29 49 35 60 5 11 21 38 34 60 14 22 33 56 43 75 9 19 21 40 25 45 10
13 149 252 194 335 20 36 49 84 64 108 16 24 29 46 29 50 0 4 20 40 45 81 24
41 43 77 41 80 -2 3 -439 6 -970 6 l-967 0 -24 37 c-14 21 -25 40 -25 43 0 4
-66 118 -90 155 -6 8 -16 26 -22 40 -7 14 -16 27 -20 30 -4 3 -12 17 -18 30
-6 14 -16 34 -23 45 -7 11 -27 47 -46 80 -19 33 -61 104 -93 158 -32 54 -58
102 -58 107 0 4 -11 21 -24 37 -13 15 -24 33 -25 38 0 6 -12 27 -26 48 -14 22
-25 42 -25 45 0 4 -7 15 -15 26 -13 17 -16 14 -47 -39z"></path>
<path d="M4510 4750 c0 -6 -22 -47 -50 -91 -27 -44 -50 -83 -50 -85 0 -2 -18
-34 -40 -70 -22 -36 -40 -68 -40 -71 0 -3 -8 -17 -19 -31 -10 -15 -30 -48 -44
-74 -15 -26 -82 -143 -150 -260 -113 -196 -193 -335 -237 -412 -9 -17 -44 -76
-77 -131 -33 -55 -63 -107 -66 -115 -4 -8 -18 -33 -32 -55 -14 -22 -30 -51
-36 -65 -6 -13 -13 -27 -17 -30 -8 -5 -122 -200 -150 -255 -14 -26 -39 -68
-89 -150 -7 -11 -28 -47 -46 -80 -40 -70 -134 -233 -147 -255 -34 -55 -90
-151 -90 -155 0 -4 -31 -56 -77 -130 -7 -11 -21 -36 -31 -55 -10 -19 -42 -74
-72 -123 -46 -76 -55 -85 -65 -70 -6 10 -49 83 -95 163 -45 80 -90 156 -99
170 -8 14 -26 45 -39 70 -14 25 -31 52 -38 61 -8 8 -14 18 -14 21 0 4 -20 41
-45 82 -25 42 -45 81 -45 86 0 6 -4 10 -10 10 -5 0 -10 6 -10 14 0 40 -11 41
-572 42 -296 0 -538 -2 -538 -5 0 -3 18 -35 40 -72 22 -37 40 -71 40 -75 0 -4
6 -15 14 -23 7 -9 28 -44 47 -78 18 -35 36 -63 41 -63 4 0 8 -5 8 -12 0 -6 23
-49 50 -95 28 -46 50 -85 50 -87 0 -2 16 -28 35 -57 19 -30 35 -58 35 -63 0
-5 6 -17 14 -25 7 -9 28 -43 46 -76 17 -33 35 -64 40 -70 4 -5 22 -36 39 -68
18 -32 45 -79 61 -105 16 -26 35 -58 42 -72 7 -14 25 -44 40 -67 15 -23 28
-44 28 -47 0 -3 18 -35 40 -71 22 -36 40 -68 40 -70 0 -3 11 -22 23 -43 39
-62 123 -204 148 -251 13 -24 30 -54 37 -67 l13 -24 546 2 546 3 19 30 c10 17
21 37 25 45 6 14 54 95 81 136 6 10 18 30 24 44 7 14 39 70 72 125 61 104 89
152 113 195 8 14 23 39 33 55 11 17 25 41 32 55 6 14 17 32 24 40 6 8 25 39
40 68 16 29 34 61 39 70 71 119 95 162 95 171 0 6 3 11 8 11 4 0 18 23 31 50
14 28 28 50 32 50 4 0 12 12 18 28 6 15 46 88 90 162 45 74 93 157 108 184 16
27 33 56 38 65 6 9 29 50 53 91 23 41 47 82 52 90 5 8 30 51 55 95 25 44 50
87 55 95 11 17 54 93 95 165 15 28 36 61 47 74 10 13 18 28 18 32 0 5 19 39
42 76 23 38 58 97 78 133 20 36 71 125 113 197 42 73 77 137 77 142 0 5 5 11
11 13 9 3 -109 217 -261 473 -126 213 -180 307 -180 316 0 5 -5 9 -11 9 -5 0
-7 5 -4 10 3 6 1 10 -4 10 -6 0 -11 4 -11 9 0 5 -14 34 -32 65 -30 52 -48 69
-48 46z"></path>
</g>
</svg><style>@media (prefers-color-scheme: light) { :root { filter: none; } }
</style></svg>